<svg xmlns="http://www.w3.org/2000/svg" viewBox="0 0 585.2364 490.00002" height="522.667" width="624.252"><defs><marker orient="auto" id="g" overflow="visible"><path d="M10 0l4-4L0 0l14 4-4-4z" fill="#373a3c" fill-rule="evenodd" stroke="#373a3c" stroke-width=".8pt"/></marker><marker id="h" orient="auto" overflow="visible"><path d="M-10 0l-4 4L0 0l-14-4 4 4z" fill="#373a3c" fill-rule="evenodd" stroke="#373a3c" stroke-width=".8pt"/></marker><marker orient="auto" id="e" overflow="visible"><path d="M10 0l4-4L0 0l14 4-4-4z" fill="#373a3c" fill-rule="evenodd" stroke="#373a3c" stroke-width=".8pt"/></marker><marker id="f" orient="auto" overflow="visible"><path d="M-10 0l-4 4L0 0l-14-4 4 4z" fill="#373a3c" fill-rule="evenodd" stroke="#373a3c" stroke-width=".8pt"/></marker><marker id="d" orient="auto" overflow="visible"><path d="M-10 0l-4 4L0 0l-14-4 4 4z" fill="#373a3c" fill-rule="evenodd" stroke="#373a3c" stroke-width=".8pt"/></marker><marker id="c" orient="auto" overflow="visible"><path d="M-10 0l-4 4L0 0l-14-4 4 4z" fill="#373a3c" fill-rule="evenodd" stroke="#373a3c" stroke-width=".8pt"/></marker><marker orient="auto" id="b" overflow="visible"><path d="M-10 0l-4 4L0 0l-14-4 4 4z" fill="#373a3c" fill-rule="evenodd" stroke="#373a3c" stroke-width=".8pt"/></marker><marker id="a" orient="auto" overflow="visible"><path d="M-10 0l-4 4L0 0l-14-4 4 4z" fill="#373a3c" fill-rule="evenodd" stroke="#373a3c" stroke-width=".8pt"/></marker></defs><g transform="translate(1652.618 741.21)"><path d="M-1361.99-405.587v-83.702" fill="#373a3c" fill-rule="evenodd" stroke="#373a3c" stroke-width="1.2" marker-end="url(#a)"/><path d="M-1592.292-406.21h230.36" fill="#373a3c" fill-rule="evenodd" stroke="#373a3c" stroke-width="1.2"/><path d="M-1282.615-526.606h47.618" fill="#373a3c" fill-rule="evenodd" stroke="#373a3c" stroke-width="1.2" marker-end="url(#b)"/><rect width="165.236" height="70" x="-1232.618" y="-741.209" rx="15" ry="15" fill="#818a91"/><text y="-696.626" x="-1150.664" style="line-height:125%;-inkscape-font-specification:Consolas;text-align:center" font-weight="400" font-size="26.166" font-family="Consolas" letter-spacing="0" word-spacing="0" text-anchor="middle" fill="#fff"><tspan style="-inkscape-font-specification:'Lato Semi-Bold'" y="-696.626" x="-1150.664" font-family="Lato">File</tspan></text><path d="M-1151.99-539.066v-130.468" fill="#373a3c" fill-rule="evenodd" stroke="#373a3c" stroke-width="1.2" marker-end="url(#c)"/><path fill="#486583" d="M-1442.618-561.21h165.236v70h-165.236z"/><rect y="-561.209" x="-1232.618" height="70" width="165.236" rx="15" ry="15" fill="#486583"/><text y="-516.626" x="-1360.664" style="line-height:125%;-inkscape-font-specification:Consolas;text-align:center" font-weight="400" font-size="26.166" font-family="Consolas" letter-spacing="0" word-spacing="0" text-anchor="middle" fill="#fff"><tspan style="-inkscape-font-specification:'Lato Semi-Bold'" y="-516.626" x="-1360.664" font-family="Lato">Processor</tspan></text><text style="line-height:100%;-inkscape-font-specification:Consolas;text-align:center" x="-1150.664" y="-529.715" font-weight="400" font-size="26.166" font-family="Consolas" letter-spacing="0" word-spacing="0" text-anchor="middle" fill="#fff"><tspan x="-1150.664" y="-529.715" style="line-height:100%;-inkscape-font-specification:'Lato Semi-Bold'" font-family="Lato">Secondary</tspan><tspan x="-1150.664" y="-503.55" style="line-height:100%;-inkscape-font-specification:'Lato Semi-Bold'" font-family="Lato">data store</tspan></text><path d="M-1492.86-526.606h47.62" fill="#373a3c" fill-rule="evenodd" stroke="#373a3c" stroke-width="1.2" marker-end="url(#d)"/><rect ry="15" rx="15" y="-561.209" x="-1652.618" height="70" width="165.236" fill="#ee5b1c"/><path fill="#ee5b1c" d="M-1652.618-441.21h165.236v70h-165.236z"/><rect y="-321.209" x="-1652.618" height="70" width="165.236" rx="15" ry="15" fill="#ee5b1c"/><text style="line-height:125%;-inkscape-font-specification:Consolas;text-align:center" x="-1570.664" y="-516.626" font-weight="400" font-size="26.166" font-family="Consolas" letter-spacing="0" word-spacing="0" text-anchor="middle" fill="#fff"><tspan x="-1570.664" y="-516.626" style="-inkscape-font-specification:'Lato Semi-Bold'" font-family="Lato">Data store</tspan></text><text y="-396.626" x="-1570.664" style="line-height:125%;-inkscape-font-specification:Consolas;text-align:center" font-weight="400" font-size="26.166" font-family="Consolas" letter-spacing="0" word-spacing="0" text-anchor="middle" fill="#fff"><tspan style="-inkscape-font-specification:'Lato Semi-Bold'" y="-396.626" x="-1570.664" font-family="Lato">Indexer(s)</tspan></text><text style="line-height:125%;-inkscape-font-specification:Consolas;text-align:center" x="-1570.664" y="-276.626" font-weight="400" font-size="26.166" font-family="Consolas" letter-spacing="0" word-spacing="0" text-anchor="middle" fill="#fff"><tspan x="-1570.664" y="-276.626" style="-inkscape-font-specification:'Lato Semi-Bold'" font-family="Lato">Index</tspan></text><path d="M-1571.99-489.567v46.124" fill="#373a3c" fill-rule="evenodd" stroke="#373a3c" stroke-width="1.2" marker-start="url(#e)" marker-end="url(#f)"/><path d="M-1571.99-370.416v47.62" fill="#373a3c" fill-rule="evenodd" stroke="#373a3c" stroke-width="1.2" marker-start="url(#g)" marker-end="url(#h)"/></g></svg>