<svg xmlns="http://www.w3.org/2000/svg" viewBox="0 0 777.49833 690.00001" height="736" width="829.332"><defs><marker orient="auto" id="j" overflow="visible"><path d="M-10 0l-4 4L0 0l-14-4 4 4z" fill="#373a3c" fill-rule="evenodd" stroke="#373a3c" stroke-width=".8pt"/></marker><marker id="i" orient="auto" overflow="visible"><path d="M-10 0l-4 4L0 0l-14-4 4 4z" fill="#373a3c" fill-rule="evenodd" stroke="#373a3c" stroke-width=".8pt"/></marker><marker id="h" orient="auto" overflow="visible"><path d="M-10 0l-4 4L0 0l-14-4 4 4z" fill="#373a3c" fill-rule="evenodd" stroke="#373a3c" stroke-width=".8pt"/></marker><marker orient="auto" id="g" overflow="visible"><path d="M-10 0l-4 4L0 0l-14-4 4 4z" fill="#373a3c" fill-rule="evenodd" stroke="#373a3c" stroke-width=".8pt"/></marker><marker orient="auto" id="f" overflow="visible"><path d="M-10 0l-4 4L0 0l-14-4 4 4z" fill="#373a3c" fill-rule="evenodd" stroke="#373a3c" stroke-width=".8pt"/></marker><marker orient="auto" id="e" overflow="visible"><path d="M-10 0l-4 4L0 0l-14-4 4 4z" fill="#373a3c" fill-rule="evenodd" stroke="#373a3c" stroke-width=".8pt"/></marker><marker orient="auto" id="d" overflow="visible"><path d="M-10 0l-4 4L0 0l-14-4 4 4z" fill="#373a3c" fill-rule="evenodd" stroke="#373a3c" stroke-width=".8pt"/></marker><marker id="c" orient="auto" overflow="visible"><path d="M-10 0l-4 4L0 0l-14-4 4 4z" fill="#373a3c" fill-rule="evenodd" stroke="#373a3c" stroke-width=".8pt"/></marker><marker orient="auto" id="b" overflow="visible"><path d="M-10 0l-4 4L0 0l-14-4 4 4z" fill="#373a3c" fill-rule="evenodd" stroke="#373a3c" stroke-width=".8pt"/></marker><marker id="a" orient="auto" overflow="visible"><path d="M-10 0l-4 4L0 0l-14-4 4 4z" fill="#373a3c" fill-rule="evenodd" stroke="#373a3c" stroke-width=".8pt"/></marker></defs><g transform="translate(-654.108 361.21)"><path d="M1380.332-111.233v-31.43h-140v31.43m-490 53.26v23.788h280v-23.788" fill="none" stroke="#373a3c" stroke-width="1.2"/><rect ry="15" rx="15" width="165.236" height="70" x="809.703" y="-361.209" fill="#818a91"/><path fill="#ee5b1c" d="M809.703-241.21H974.94v70H809.702z"/><rect ry="15" rx="15" width="165.236" height="70" x="809.703" y="-1.209" fill="#ee5b1c"/><path fill="#ee5b1c" d="M809.703 138.79H974.94v70H809.702z"/><rect ry="15" rx="15" width="165.236" height="70" x="809.703" y="258.791" fill="#ee5b1c"/><path fill="#ee5b1c" d="M1229.703-241.21h165.236v70H1229.7z"/><rect ry="15" rx="15" y="-361.209" x="1229.703" height="70" width="165.236" fill="#818a91"/><rect ry="15" rx="15" width="98.571" height="70" x="1193.035" y="-121.209" fill="#818a91"/><rect ry="15" rx="15" y="-121.209" x="1333.035" height="70" width="98.571" fill="#818a91"/><rect ry="15" rx="15" y="-121.209" x="703.035" height="70" width="98.571" fill="#818a91"/><rect ry="15" rx="15" width="98.571" height="70" x="843.035" y="-121.209" fill="#818a91"/><rect ry="15" rx="15" y="-121.209" x="983.035" height="70" width="98.571" fill="#818a91"/><path d="M701.848 103.545h380.946" fill="none" stroke="#000" stroke-dasharray="5.99999999,5.99999999"/><text y="-316.626" x="891.657" style="line-height:125%;-inkscape-font-specification:Consolas;text-align:center" font-weight="400" font-size="26.166" font-family="Consolas" letter-spacing="0" word-spacing="0" text-anchor="middle" fill="#fff"><tspan style="-inkscape-font-specification:'Lato Semi-Bold'" y="-316.626" x="891.657" font-family="Lato">File</tspan></text><text style="line-height:125%;-inkscape-font-specification:Consolas;text-align:center" x="891.657" y="-196.626" font-weight="400" font-size="26.166" font-family="Consolas" letter-spacing="0" word-spacing="0" text-anchor="middle" fill="#fff"><tspan x="891.657" y="-196.626" style="-inkscape-font-specification:'Lato Semi-Bold'" font-family="Lato">Splitter</tspan></text><text y="43.374" x="891.657" style="line-height:125%;-inkscape-font-specification:Consolas;text-align:center" font-weight="400" font-size="26.166" font-family="Consolas" letter-spacing="0" word-spacing="0" text-anchor="middle" fill="#fff"><tspan style="-inkscape-font-specification:'Lato Semi-Bold'" y="43.374" x="891.657" font-family="Lato">Data store</tspan></text><text style="line-height:125%;-inkscape-font-specification:Consolas;text-align:center" x="891.657" y="183.374" font-weight="400" font-size="26.166" font-family="Consolas" letter-spacing="0" word-spacing="0" text-anchor="middle" fill="#fff"><tspan x="891.657" y="183.374" style="-inkscape-font-specification:'Lato Semi-Bold'" font-family="Lato">Indexer(s)</tspan></text><text y="303.374" x="891.657" style="line-height:125%;-inkscape-font-specification:Consolas;text-align:center" font-weight="400" font-size="26.166" font-family="Consolas" letter-spacing="0" word-spacing="0" text-anchor="middle" fill="#fff"><tspan style="-inkscape-font-specification:'Lato Semi-Bold'" y="303.374" x="891.657" font-family="Lato">Index</tspan></text><text y="-196.626" x="1311.657" style="line-height:125%;-inkscape-font-specification:Consolas;text-align:center" font-weight="400" font-size="26.166" font-family="Consolas" letter-spacing="0" word-spacing="0" text-anchor="middle" fill="#fff"><tspan style="-inkscape-font-specification:'Lato Semi-Bold'" y="-196.626" x="1311.657" font-family="Lato">Merger</tspan></text><text style="line-height:125%;-inkscape-font-specification:Consolas;text-align:center" x="1311.657" y="-316.626" font-weight="400" font-size="26.166" font-family="Consolas" letter-spacing="0" word-spacing="0" text-anchor="middle" fill="#fff"><tspan x="1311.657" y="-316.626" style="-inkscape-font-specification:'Lato Semi-Bold'" font-family="Lato">File</tspan></text><text style="line-height:125%;-inkscape-font-specification:Consolas;text-align:center" x="891.657" y="-76.626" font-weight="400" font-size="26.166" font-family="Consolas" letter-spacing="0" word-spacing="0" text-anchor="middle" fill="#fff"><tspan x="891.657" y="-76.626" style="-inkscape-font-specification:'Lato Semi-Bold'" font-family="Lato">Chunk</tspan></text><text y="-76.626" x="751.657" style="line-height:125%;-inkscape-font-specification:Consolas;text-align:center" font-weight="400" font-size="26.166" font-family="Consolas" letter-spacing="0" word-spacing="0" text-anchor="middle" fill="#fff"><tspan style="-inkscape-font-specification:'Lato Semi-Bold'" y="-76.626" x="751.657" font-family="Lato">Chunk</tspan></text><text style="line-height:125%;-inkscape-font-specification:Consolas;text-align:center" x="1031.657" y="-76.626" font-weight="400" font-size="26.166" font-family="Consolas" letter-spacing="0" word-spacing="0" text-anchor="middle" fill="#fff"><tspan x="1031.657" y="-76.626" style="-inkscape-font-specification:'Lato Semi-Bold'" font-family="Lato">Chunk</tspan></text><text y="-76.626" x="1241.657" style="line-height:125%;-inkscape-font-specification:Consolas;text-align:center" font-weight="400" font-size="26.166" font-family="Consolas" letter-spacing="0" word-spacing="0" text-anchor="middle" fill="#fff"><tspan style="-inkscape-font-specification:'Lato Semi-Bold'" y="-76.626" x="1241.657" font-family="Lato">Chunk</tspan></text><text style="line-height:125%;-inkscape-font-specification:Consolas;text-align:center" x="1381.657" y="-76.626" font-weight="400" font-size="26.166" font-family="Consolas" letter-spacing="0" word-spacing="0" text-anchor="middle" fill="#fff"><tspan x="1381.657" y="-76.626" style="-inkscape-font-specification:'Lato Semi-Bold'" font-family="Lato">Chunk</tspan></text><path d="M890.332-291.21v47.62" fill="#373a3c" fill-rule="evenodd" stroke="#373a3c" stroke-width="1.2" marker-end="url(#a)"/><path d="M890.332-171.21v47.62" fill="#373a3c" fill-rule="evenodd" stroke="#373a3c" stroke-width="1.2" marker-end="url(#b)"/><path d="M890.332-51.21v47.62" fill="#373a3c" fill-rule="evenodd" stroke="#373a3c" stroke-width="1.2" marker-end="url(#c)"/><text y="-76.626" x="961.657" style="line-height:125%;-inkscape-font-specification:Consolas;text-align:center" font-weight="400" font-size="26.166" font-family="Consolas" letter-spacing="0" word-spacing="0" text-anchor="middle" fill="#373a3c"><tspan style="-inkscape-font-specification:'Lato Semi-Bold'" y="-76.626" x="961.657" font-family="Lato">...</tspan></text><path d="M890.332 70.433v66.124" fill="#373a3c" fill-rule="evenodd" stroke="#373a3c" stroke-width="1.2" marker-end="url(#d)"/><path d="M890.332 209.584v47.62" fill="#373a3c" fill-rule="evenodd" stroke="#373a3c" stroke-width="1.2" marker-end="url(#e)"/><path d="M1310.332-241.407v-47.618" fill="#373a3c" fill-rule="evenodd" stroke="#373a3c" stroke-width="1.2" marker-end="url(#f)"/><path d="M750.332-122.82v-31.43h280v31.43" fill="none" stroke="#373a3c" stroke-width="1.2" marker-end="url(#g)"/><rect ry="7" rx="7.393" width="84.426" height="30.535" x="654.108" y="-133.477" fill="#ee5b1c"/><text style="line-height:125%;-inkscape-font-specification:Consolas;text-align:center" x="695.967" y="-111.928" font-weight="400" font-size="17.163" font-family="Consolas" letter-spacing="0" word-spacing="0" text-anchor="middle" fill="#fff"><tspan x="695.967" y="-111.928" style="-inkscape-font-specification:'Lato Semi-Bold'" font-family="Lato">Metadata</tspan></text><rect y="-133.477" x="829.678" height="30.535" width="37.286" rx="7" ry="7" fill="#ee5b1c"/><rect ry="7" rx="7" width="37.286" height="30.535" x="969.678" y="-133.477" fill="#ee5b1c"/><text style="line-height:125%;-inkscape-font-specification:Consolas;text-align:center" x="821.657" y="-76.626" font-weight="400" font-size="26.166" font-family="Consolas" letter-spacing="0" word-spacing="0" text-anchor="middle" fill="#373a3c"><tspan x="821.657" y="-76.626" style="-inkscape-font-specification:'Lato Semi-Bold'" font-family="Lato">...</tspan></text><path d="M1310.332-142.732v-27.228" fill="#373a3c" fill-rule="evenodd" stroke="#373a3c" stroke-width="1.2" marker-end="url(#h)"/><path d="M1240.332 33.818v-83.123" fill="#373a3c" fill-rule="evenodd" stroke="#373a3c" stroke-width="1.2" marker-end="url(#i)"/><path d="M1380.332 34.413V-49.29" fill="#373a3c" fill-rule="evenodd" stroke="#373a3c" stroke-width="1.2" marker-end="url(#j)"/><path d="M974.94 33.79h405.448" fill="#373a3c" fill-rule="evenodd" stroke="#373a3c" stroke-width="1.2"/><path d="M974.94 173.79h134.782V33.753" fill="none" stroke="#373a3c" stroke-width="1.2"/><text style="line-height:125%;-inkscape-font-specification:Consolas;text-align:center" x="1311.657" y="-76.626" font-weight="400" font-size="26.166" font-family="Consolas" letter-spacing="0" word-spacing="0" text-anchor="middle" fill="#373a3c"><tspan x="1311.657" y="-76.626" style="-inkscape-font-specification:'Lato Semi-Bold'" font-family="Lato">...</tspan></text></g></svg>